<svg id="ez01AR8Ovj61" xmlns="http://www.w3.org/2000/svg" xmlns:xlink="http://www.w3.org/1999/xlink" viewBox="0 0 150 150" shape-rendering="geometricPrecision" text-rendering="geometricPrecision"><g transform="translate(31.99912-81.115674)"><g transform="translate(.096535 0)"><rect width="100" height="60" rx="0" ry="0" transform="translate(-1.596535 113)" fill="#2e384d" stroke-width="0"/><line x1="0" y1="-15" x2="0" y2="45" transform="translate(-.596535 128)" fill="none" stroke="#3f5787" stroke-width="2"/><line x1="0" y1="-15" x2="0" y2="45" transform="translate(97.403465 128)" fill="none" stroke="#3f5787" stroke-width="2"/><line x1="-30" y1="0" x2="70" y2="0" transform="translate(28.403465 173.5)" fill="none" stroke="#3f5787" stroke-width="3"/><line x1="-31.589829" y1="0" x2="68.410171" y2="0" transform="translate(29.993294 111.5)" fill="none" stroke="#3f5787" stroke-width="3"/></g><rect width="100" height="3" rx="0" ry="0" transform="translate(-1.5 178)" fill="#2e384d" stroke-width="0"/><rect width="100" height="3" rx="0" ry="0" transform="translate(-1.5 175)" fill="#c8c0c5" stroke-width="0"/><ellipse rx="0.75" ry="0.75" transform="translate(48.5 111.5)" fill="#d2dbed" stroke-width="0"/><g transform="translate(-102.00352 81.481348)"><g><rect width="28" height="15" rx="0" ry="0" transform="translate(105.501763 58)" fill="#748ac7" stroke-width="0"/><g><line x1="-14" y1="0" x2="0" y2="0" transform="translate(119.501763 76)" fill="none" stroke="#87593f"/><line x1="-14" y1="0" x2="-9" y2="0" transform="translate(142.501763 76)" fill="none" stroke="#fff"/><line x1="-14" y1="0" x2="-7" y2="0" transform="translate(134.5 76)" fill="none" stroke="#87593f"/></g><g transform="translate(0 3)"><line x1="-14" y1="0" x2="-7" y2="0" transform="translate(119.501763 76)" fill="none" stroke="#87593f"/><line x1="-14" y1="0" x2="0" y2="0" transform="translate(133.5 76)" fill="none" stroke="#4b3f87"/><line x1="-14" y1="0" x2="-9" y2="0" transform="translate(127.5 76)" fill="none" stroke="#877b3f"/></g><g transform="translate(0 6)"><line x1="-14" y1="0" x2="-9" y2="0" transform="translate(119.501763 76)" fill="none" stroke="#87593f"/><line x1="-14" y1="0" x2="-7" y2="0" transform="translate(140.5 76)" fill="none" stroke="#3f877a"/><line x1="-14" y1="0" x2="0" y2="0" transform="translate(125.5 76)" fill="none" stroke="#4b3f87"/></g><g transform="translate(0 9)"><line x1="-14" y1="0" x2="-9" y2="0" transform="translate(119.501763 76)" fill="none" stroke="#87593f"/><line x1="-14" y1="0" x2="0" y2="0" transform="translate(125.5 76)" fill="none" stroke="#3f6787"/></g></g><g transform="translate(30.999997 0)"><rect width="28" height="15" rx="0" ry="0" transform="translate(105.501763 58)" fill="#748ac7" stroke-width="0"/><g><line x1="-14" y1="0" x2="0" y2="0" transform="translate(119.501763 76)" fill="none" stroke="#87593f"/><line x1="-14" y1="0" x2="-9" y2="0" transform="translate(142.501763 76)" fill="none" stroke="#fff"/><line x1="-14" y1="0" x2="-7" y2="0" transform="translate(134.5 76)" fill="none" stroke="#87593f"/></g><g transform="translate(0 3)"><line x1="-14" y1="0" x2="-7" y2="0" transform="translate(119.501763 76)" fill="none" stroke="#87593f"/><line x1="-14" y1="0" x2="0" y2="0" transform="translate(133.5 76)" fill="none" stroke="#4b3f87"/><line x1="-14" y1="0" x2="-9" y2="0" transform="translate(127.5 76)" fill="none" stroke="#877b3f"/></g><g transform="translate(0 6)"><line x1="-14" y1="0" x2="-9" y2="0" transform="translate(119.501763 76)" fill="none" stroke="#87593f"/><line x1="-14" y1="0" x2="-7" y2="0" transform="translate(140.5 76)" fill="none" stroke="#3f877a"/><line x1="-14" y1="0" x2="0" y2="0" transform="translate(125.5 76)" fill="none" stroke="#4b3f87"/></g><g transform="translate(0 9)"><line x1="-14" y1="0" x2="-9" y2="0" transform="translate(119.501763 76)" fill="none" stroke="#87593f"/><line x1="-14" y1="0" x2="0" y2="0" transform="translate(125.5 76)" fill="none" stroke="#3f6787"/></g></g><g transform="translate(61.999993 0)"><rect width="28" height="15" rx="0" ry="0" transform="translate(105.501763 58)" fill="#748ac7" stroke-width="0"/><g><line x1="-14" y1="0" x2="0" y2="0" transform="translate(119.501763 76)" fill="none" stroke="#87593f"/><line x1="-14" y1="0" x2="-9" y2="0" transform="translate(142.501763 76)" fill="none" stroke="#fff"/><line x1="-14" y1="0" x2="-7" y2="0" transform="translate(134.5 76)" fill="none" stroke="#87593f"/></g><g transform="translate(0 3)"><line x1="-14" y1="0" x2="-7" y2="0" transform="translate(119.501763 76)" fill="none" stroke="#87593f"/><line x1="-14" y1="0" x2="0" y2="0" transform="translate(133.5 76)" fill="none" stroke="#4b3f87"/><line x1="-14" y1="0" x2="-9" y2="0" transform="translate(127.5 76)" fill="none" stroke="#877b3f"/></g><g transform="translate(0 6)"><line x1="-14" y1="0" x2="-9" y2="0" transform="translate(119.501763 76)" fill="none" stroke="#87593f"/><line x1="-14" y1="0" x2="-7" y2="0" transform="translate(140.5 76)" fill="none" stroke="#3f877a"/><line x1="-14" y1="0" x2="0" y2="0" transform="translate(125.5 76)" fill="none" stroke="#4b3f87"/></g><g transform="translate(0 9)"><line x1="-14" y1="0" x2="-9" y2="0" transform="translate(119.501763 76)" fill="none" stroke="#87593f"/><line x1="-14" y1="0" x2="0" y2="0" transform="translate(125.5 76)" fill="none" stroke="#3f6787"/></g></g></g><rect width="90" height="29.999985" rx="0" ry="0" transform="matrix(1 0 0 0.666667 3.498242 116.481348)" fill="#3b5570" stroke-width="0"/></g><g transform="translate(-105.502644-60.634326)"><rect width="30" height="48.105046" rx="0" ry="0" transform="matrix(1 0 0 1.039392 220.00352 130)" fill="#2e384d" stroke-width="0"/><line x1="0" y1="-22.75" x2="0" y2="27.25" transform="translate(220.00352 152.75)" fill="none" stroke="#3f5787"/><line x1="0" y1="-22.75" x2="0" y2="27.25" transform="translate(250 152.75)" fill="none" stroke="#3f5787"/><line x1="-15.975041" y1="0" x2="14.024959" y2="0" transform="translate(235.975041 179.5)" fill="none" stroke="#3f5787"/><line x1="-15.975041" y1="0" x2="14.024959" y2="0" transform="translate(235.975041 130.5)" fill="none" stroke="#3f5787"/><ellipse rx="1.25" ry="1.25" transform="translate(246.75 133.25)" fill="#d2dbed" stroke-width="0"/><line x1="-2.414703" y1="0" x2="0.585297" y2="0" transform="translate(235.918223 130.5)" fill="none" stroke="#748ac7" stroke-width="0.5"/><g transform="translate(110.001765-22.749343)"><g><g transform="matrix(.893109 0 0 0.602462 18.277182 144.311547)"><rect width="28" height="15" rx="0" ry="0" transform="translate(105.501763 58)" fill="#748ac7" stroke-width="0"/><g><line x1="-14" y1="0" x2="0" y2="0" transform="translate(119.501763 76)" fill="none" stroke="#87593f"/><line x1="-14" y1="0" x2="-9" y2="0" transform="translate(142.501763 76)" fill="none" stroke="#fff"/><line x1="-14" y1="0" x2="-7" y2="0" transform="translate(134.5 76)" fill="none" stroke="#87593f"/></g><g transform="translate(0 3)"><line x1="-14" y1="0" x2="-7" y2="0" transform="translate(119.501763 76)" fill="none" stroke="#87593f"/><line x1="-14" y1="0" x2="0" y2="0" transform="translate(133.5 76)" fill="none" stroke="#4b3f87"/><line x1="-14" y1="0" x2="-9" y2="0" transform="translate(127.5 76)" fill="none" stroke="#877b3f"/></g><g transform="translate(0 6)"><line x1="-14" y1="0" x2="-9" y2="0" transform="translate(119.501763 76)" fill="none" stroke="#87593f"/><line x1="-14" y1="0" x2="-7" y2="0" transform="translate(140.5 76)" fill="none" stroke="#3f877a"/><line x1="-14" y1="0" x2="0" y2="0" transform="translate(125.5 76)" fill="none" stroke="#4b3f87"/></g><g transform="translate(0 9)"><line x1="-14" y1="0" x2="-9" y2="0" transform="translate(119.501763 76)" fill="none" stroke="#87593f"/><line x1="-14" y1="0" x2="0" y2="0" transform="translate(125.5 76)" fill="none" stroke="#3f6787"/></g></g></g><rect width="25" height="29.999985" rx="0" ry="0" transform="matrix(1 0 0 0.666667 112.501755 158.254343)" fill="#3b5570" stroke-width="0"/></g></g><g transform="translate(-4.500881-40.634326)"><rect width="50" height="60" rx="0" ry="0" transform="translate(10 100)" fill="#2e384d" stroke-width="0"/><line x1="-20" y1="0" x2="30" y2="0" transform="translate(30 160)" fill="none" stroke="#3f5787" stroke-width="2"/><line x1="-20" y1="0" x2="30" y2="0" transform="translate(30 100)" fill="none" stroke="#3f5787" stroke-width="2"/><line x1="0" y1="-30" x2="0" y2="32" transform="translate(10 129)" fill="none" stroke="#3f5787" stroke-width="2"/><line x1="0" y1="-30" x2="0" y2="32" transform="translate(59.998242 129)" fill="none" stroke="#3f5787" stroke-width="2"/><ellipse rx="1" ry="1" transform="translate(35 103)" fill="#d2dbed" stroke-width="0"/><g transform="translate(-90.505275-51)"><g><g transform="matrix(.642731 0 0 0.485934 37.692505 152.815828)"><rect width="28" height="15" rx="0" ry="0" transform="translate(105.501763 58)" fill="#748ac7" stroke-width="0"/><g><line x1="-14" y1="0" x2="0" y2="0" transform="translate(119.501763 76)" fill="none" stroke="#87593f"/><line x1="-14" y1="0" x2="-9" y2="0" transform="translate(142.501763 76)" fill="none" stroke="#fff"/><line x1="-14" y1="0" x2="-7" y2="0" transform="translate(134.5 76)" fill="none" stroke="#87593f"/></g><g transform="translate(0 3)"><line x1="-14" y1="0" x2="-7" y2="0" transform="translate(119.501763 76)" fill="none" stroke="#87593f"/><line x1="-14" y1="0" x2="0" y2="0" transform="translate(133.5 76)" fill="none" stroke="#4b3f87"/><line x1="-14" y1="0" x2="-9" y2="0" transform="translate(127.5 76)" fill="none" stroke="#877b3f"/></g><g transform="translate(0 6)"><line x1="-14" y1="0" x2="-9" y2="0" transform="translate(119.501763 76)" fill="none" stroke="#87593f"/><line x1="-14" y1="0" x2="-7" y2="0" transform="translate(140.5 76)" fill="none" stroke="#3f877a"/><line x1="-14" y1="0" x2="0" y2="0" transform="translate(125.5 76)" fill="none" stroke="#4b3f87"/></g><g transform="translate(0 9)"><line x1="-14" y1="0" x2="-9" y2="0" transform="translate(119.501763 76)" fill="none" stroke="#87593f"/><line x1="-14" y1="0" x2="0" y2="0" transform="translate(125.5 76)" fill="none" stroke="#3f6787"/></g></g><g transform="matrix(.642731 0 0 0.485934 59.696031 152.815828)"><rect width="28" height="15" rx="0" ry="0" transform="translate(105.501763 58)" fill="#748ac7" stroke-width="0"/><g><line x1="-14" y1="0" x2="0" y2="0" transform="translate(119.501763 76)" fill="none" stroke="#87593f"/><line x1="-14" y1="0" x2="-9" y2="0" transform="translate(142.501763 76)" fill="none" stroke="#fff"/><line x1="-14" y1="0" x2="-7" y2="0" transform="translate(134.5 76)" fill="none" stroke="#87593f"/></g><g transform="translate(0 3)"><line x1="-14" y1="0" x2="-7" y2="0" transform="translate(119.501763 76)" fill="none" stroke="#87593f"/><line x1="-14" y1="0" x2="0" y2="0" transform="translate(133.5 76)" fill="none" stroke="#4b3f87"/><line x1="-14" y1="0" x2="-9" y2="0" transform="translate(127.5 76)" fill="none" stroke="#877b3f"/></g><g transform="translate(0 6)"><line x1="-14" y1="0" x2="-9" y2="0" transform="translate(119.501763 76)" fill="none" stroke="#87593f"/><line x1="-14" y1="0" x2="-7" y2="0" transform="translate(140.5 76)" fill="none" stroke="#3f877a"/><line x1="-14" y1="0" x2="0" y2="0" transform="translate(125.5 76)" fill="none" stroke="#4b3f87"/></g><g transform="translate(0 9)"><line x1="-14" y1="0" x2="-9" y2="0" transform="translate(119.501763 76)" fill="none" stroke="#87593f"/><line x1="-14" y1="0" x2="0" y2="0" transform="translate(125.5 76)" fill="none" stroke="#3f6787"/></g></g></g><rect width="40" height="29.999985" rx="0" ry="0" transform="matrix(1 0 0 0.666667 105.501758 158)" fill="#3b5570" stroke-width="0"/></g></g></svg>
